<svg xmlns="http://www.w3.org/2000/svg" xmlns:xlink="http://www.w3.org/1999/xlink" viewBox="0 0 404.92 85.7"><defs><path id="a" d="M0 0h404.92v85.7H0z"/></defs><clipPath id="b"><use xlink:href="#a" overflow="visible"/></clipPath><path clip-path="url(#b)" fill="#F15D2A" d="M34.07 18.92v9.51c0 11.7-5.64 18.08-17.14 18.08H11.5V74H0V.84h16.93c11.5 0 17.14 6.37 17.14 18.08M11.5 11.29v24.77h5.44c3.66 0 5.64-1.67 5.64-6.9V18.19c0-5.23-1.99-6.9-5.64-6.9H11.5zM63.97 74c-.63-1.88-1.04-3.04-1.04-8.99v-11.5c0-6.79-2.3-9.3-7.53-9.3h-3.97V74h-11.5V.84h17.35c11.91 0 17.04 5.54 17.04 16.83v5.75c0 7.53-2.41 12.44-7.53 14.84 5.75 2.4 7.63 7.94 7.63 15.57v11.28c0 3.55.1 6.17 1.25 8.89h-11.7zM51.43 11.29v22.47h4.49c4.29 0 6.9-1.88 6.9-7.73v-7.21c0-5.23-1.78-7.53-5.85-7.53h-5.54zM153.83 0c11.18 0 16.93 6.69 16.93 18.4v2.3h-10.87v-3.03c0-5.23-2.09-7.21-5.75-7.21s-5.75 1.99-5.75 7.21c0 15.05 22.47 17.87 22.47 38.77 0 11.7-5.85 18.39-17.14 18.39-11.29 0-17.14-6.69-17.14-18.39v-4.5h10.87v5.23c0 5.23 2.3 7.11 5.96 7.11s5.96-1.88 5.96-7.11c0-15.05-22.47-17.87-22.47-38.77 0-11.71 5.75-18.4 16.93-18.4m60.84 74h-11.6l-1.99-13.27h-14.11L184.99 74h-10.56L186.13.84h16.82L214.67 74zm-26.23-23.21h11.08l-5.54-36.99-5.54 36.99zM235.16.84c11.29 0 15.68 7.1 15.68 17.76v7.94c0 11.6-5.33 17.35-16.93 17.35h-9.09V74h-4.81V.84h15.15zm-1.25 38.67c8.47 0 12.12-3.76 12.12-12.64V18.3c0-7.94-2.72-13.06-10.87-13.06h-10.35v34.28h9.1zM273.52.84c11.18 0 15.68 6.17 15.68 16.51v6.38c0 8.57-3.35 13.48-10.56 15.16 7.52 1.67 10.56 7 10.56 14.94v11.39c0 3.03.21 6.38 1.77 8.78h-5.02c-1.25-2.2-1.57-4.81-1.57-8.78v-11.5c0-9.72-5.33-12.44-13.69-12.44h-7.63V74h-4.81V.84h15.27zm-2.71 36.05c8.57 0 13.59-2.4 13.59-12.23v-6.9c0-7.84-3.03-12.54-10.97-12.54h-10.35v31.67h7.73zm52.57-2.19v4.39h-19.96V69.6h24.04v4.39h-28.85V.84h28.85v4.39h-24.04V34.7zm42.75-16.2v1.57h-4.6v-1.88c0-7.74-2.92-13.59-10.87-13.59s-10.87 5.75-10.87 13.48c0 17.77 26.44 18.08 26.44 38.25 0 10.55-4.6 18.29-15.78 18.29s-15.78-7.73-15.78-18.29v-3.76h4.6v4.08c0 7.84 3.03 13.48 11.08 13.48s11.08-5.64 11.08-13.48c0-17.56-26.44-17.87-26.44-38.25 0-10.97 4.81-18.08 15.57-18.18 11.08-.01 15.57 7.72 15.57 18.28m38.68 0v1.57h-4.6v-1.88c0-7.74-2.92-13.59-10.87-13.59-7.94 0-10.87 5.75-10.87 13.48 0 17.77 26.44 18.08 26.44 38.25 0 10.55-4.6 18.29-15.78 18.29s-15.78-7.73-15.78-18.29v-3.76h4.6v4.08c0 7.84 3.03 13.48 11.08 13.48s11.08-5.64 11.08-13.48c0-17.56-26.44-17.87-26.44-38.25 0-10.97 4.81-18.08 15.57-18.18 11.08-.01 15.57 7.72 15.57 18.28M114.29 0L98.47.01V0c-.03 0-.05.01-.07.01h-.23v.02C87.08.15 81.01 6.8 81.01 18.4v37.89c0 10.41 4.9 16.82 13.92 18.12l4.31 11.3 15.57-11.07c10.94-.22 16.93-6.84 16.93-18.35v-37.9C131.75 6.69 125.58 0 114.29 0"/></svg>